# xmcd
#
# Track frame offsets:
#	150
#	15745
#	30492
#	40820
#	52525
#	68692
#	84722
#	94420
#	106267
#	134105
#	147305
#
# Disc length: 2216
#
# Revision: 1
# Processed by: cddbd v1.5.1PL0 Copyright (c) Steve Scherf et al.
# Submitted via: ExactAudioCopy v0.95a5
# Normalized: r0:TDELIM( - )
#
DISCID=8f08a60b
DTITLE=Various Artist - America What a Wonderful World Vol. 3
DYEAR=1993
DGENRE=
TTITLE0=The Doobie Brothers - Long train running
TTITLE1=The Doobie Brothers - China grove
TTITLE2=The Birds - Mr. Tambourine man
TTITLE3=The Birds - Captain soul
TTITLE4=The Birds - Eight miles high
TTITLE5=The Birds - Turn! Turn! Turn!
TTITLE6=The Birds - Mr. Spaceman
TTITLE7=Buffalo Springfield - For what it's worth
TTITLE8=Buffalo Springfield - Brocken arrow
TTITLE9=Country Joe McDonald - I feel like I'm fixin' to die rag
TTITLE10=Country Joe McDonald - Save the whales
EXTD=
EXTT0=
EXTT1=
EXTT2=
EXTT3=
EXTT4=
EXTT5=
EXTT6=
EXTT7=
EXTT8=
EXTT9=
EXTT10=
PLAYORDER=
